<?xml version="1.0" encoding="utf-8"?>
<!-- Generator: Adobe Illustrator 19.0.0, SVG Export Plug-In . SVG Version: 6.00 Build 0)  -->
<svg version="1.1" id="Layer_1" xmlns="http://www.w3.org/2000/svg" xmlns:xlink="http://www.w3.org/1999/xlink" x="0px" y="0px"
	 viewBox="0 0 96 96" style="enable-background:new 0 0 96 96;" xml:space="preserve">
<style type="text/css">
	.st0{fill:#333333;}
</style>
<g id="XMLID_1_">
	<path id="XMLID_5_" class="st0" d="M48,20.5c-15.2,0-27.5,12.3-27.5,27.5c0,15.2,12.3,27.5,27.5,27.5c15.2,0,27.5-12.3,27.5-27.5
		C75.5,32.8,63.2,20.5,48,20.5z M63.8,53.9c-0.8,2.7-2.2,5.2-4.3,7.1c-2,1.8-4.4,3-7,3.6c-2.9,0.7-5.9,0.7-8.7-0.1
		c-2.2-0.6-4.4-1.7-6.2-3.1c-1.9-1.5-3.5-3.5-4.6-5.7c-1.7-3.4-2.2-7.3-1.5-11c0.3-1.5,0.8-2.9,1.5-4.3c2-3.9,5.5-7,9.7-8.5
		c3.7-1.3,7.8-1.2,11.5,0.1c2,0.7,3.9,1.9,5.5,3.4c-0.5,0.6-1.1,1.1-1.7,1.7c-1,1-2.1,2.1-3.1,3.1c-1-1-2.3-1.7-3.7-2.2
		c-1.6-0.5-3.4-0.6-5-0.2c-1.9,0.4-3.7,1.4-5.1,2.8c-1.1,1.1-2,2.5-2.5,4c-0.7,2.1-0.7,4.5,0,6.6c0.7,2.1,2.1,4,3.9,5.2
		c1.1,0.8,2.4,1.4,3.8,1.6c1.3,0.3,2.7,0.2,4.1,0c1.3-0.2,2.6-0.7,3.8-1.5c1.8-1.2,3.1-3.1,3.4-5.3c-3.1,0-6.2,0-9.3,0
		c0-2.2,0-4.4,0-6.6c5.3,0,10.7,0,16,0C64.8,47.8,64.6,50.9,63.8,53.9z"/>
</g>
</svg>
